<?xml version="1.0" encoding="UTF-8" standalone="no"?>
<svg
   xmlns:dc="http://purl.org/dc/elements/1.1/"
   xmlns:cc="http://creativecommons.org/ns#"
   xmlns:rdf="http://www.w3.org/1999/02/22-rdf-syntax-ns#"
   xmlns:svg="http://www.w3.org/2000/svg"
   xmlns="http://www.w3.org/2000/svg"
   xmlns:sodipodi="http://sodipodi.sourceforge.net/DTD/sodipodi-0.dtd"
   xmlns:inkscape="http://www.inkscape.org/namespaces/inkscape"
   sodipodi:docname="dogs-business.svg"
   inkscape:version="1.0 (4035a4f, 2020-05-01)"
   id="svg8"
   version="1.1"
   viewBox="0 0 112.12086 107.47333"
   height="107.47334mm"
   width="112.12086mm">
  <defs
     id="defs2" />
  <sodipodi:namedview
     inkscape:window-maximized="0"
     inkscape:window-y="23"
     inkscape:window-x="0"
     inkscape:window-height="787"
     inkscape:window-width="1440"
     inkscape:object-paths="true"
     inkscape:snap-nodes="true"
     showgrid="false"
     inkscape:document-rotation="0"
     inkscape:current-layer="layer2"
     inkscape:document-units="mm"
     inkscape:cy="204.88688"
     inkscape:cx="150.87462"
     inkscape:zoom="1.2918955"
     inkscape:pageshadow="2"
     inkscape:pageopacity="0.0"
     borderopacity="1.0"
     bordercolor="#666666"
     pagecolor="#ffffff"
     id="base"
     fit-margin-left="2"
     fit-margin-top="2"
     fit-margin-bottom="2"
     fit-margin-right="2" />
  <metadata
     id="metadata5">
    <rdf:RDF>
      <cc:Work
         rdf:about="">
        <dc:format>image/svg+xml</dc:format>
        <dc:type
           rdf:resource="http://purl.org/dc/dcmitype/StillImage" />
        <dc:title />
      </cc:Work>
    </rdf:RDF>
  </metadata>
  <g
     style="display:inline"
     inkscape:label="dog-outline"
     id="layer2"
     inkscape:groupmode="layer"
     transform="translate(-38.946243,-90.798412)">
    <path
       transform="scale(0.26458333)"
       d="m 521.52658,532.31123 c 0,0 0,0 0,0"
       style="display:inline;fill:none;stroke:#000000;stroke-width:0.999999px;stroke-linecap:butt;stroke-linejoin:miter;stroke-opacity:1"
       id="path910" />
    <path
       sodipodi:nodetypes="sccccssssccsscscccssccsccssscsccsssssccssccsscs"
       transform="scale(0.26458333)"
       d="M 447.25977,439.27907 C 396.09169,419.60969 345.21369,408.5994 308.12079,414.09506 c -5.94989,-2.81239 -11.92678,-4.01689 -17.72426,-4.02445 -8.12474,-3.1624 -14.82178,-6.17555 -22.06522,-9.54924 l -0.11818,-0.0552 c 0,0 9.58255,-6.16429 11.68637,-17.23094 2.76284,-14.53307 -4.15413,-35.64776 -11.45045,-31.464 -15.21018,8.72166 -22.29471,31.19713 -29.88424,32.32025 -12.01107,1.77744 -32.10371,0.17159 -40.82036,3.51587 -7.91809,3.03783 -15.56062,3.96699 -22.10997,15.31041 -2.16703,1.36872 -3.83684,2.65459 -7.52429,2.42858 -14.47813,-0.88679 -13.62854,48.69063 -11.96184,57.44292 1.66668,8.75225 22.15948,17.01275 41.05661,18.71932 11.61364,1.04878 13.23381,11.00938 39.46711,15.11448 -0.82968,6.75723 -0.60542,14.3235 1.81221,21.96057 13.65837,43.14565 43.00203,66.27224 37.76139,106.18518 -13.96537,8.26647 -33.48564,7.73613 -29.75951,19.97794 -4.57204,4.82506 -1.90163,9.93298 10.66729,9.49255 1.84641,4.70411 12.47983,7.03374 16.3265,2.46705 10.42218,-12.37304 29.68435,-23.60058 29.8237,-31.1946 0.49341,-26.88582 3.56806,-46.52787 4.21697,-75.79971 0.008,-0.3651 -0.0351,-0.72189 -0.12151,-1.06998 11.04464,4.83519 26.46507,5.78143 40.20401,4.6927 13.24346,-1.04946 27.70699,-3.201 43.04666,-7.06481 10.37193,2.7563 16.24097,7.33474 20.3907,13.5402 -17.52461,14.05814 -53.59213,13.32374 -66.78316,25.46698 -8.24687,7.59175 -15.37851,41.47125 -6.58118,62.76779 4.47487,10.83273 14.79994,7.76383 32.61339,18.68417 6.04267,3.70443 4.53513,16.70532 3.31641,23.29977 0,0 -16.69607,13.18767 -26.57006,15.87155 -9.31161,2.53104 -18.63378,6.04925 -17.85408,18.32142 -8.53186,8.50616 1.7123,15.18527 11.46116,12.38963 1.04174,4.5072 5.78575,6.72045 12.29495,2.28506 8.73443,-5.95166 24.7107,-31.16583 44.09428,-39.35497 10.65177,-4.50013 11.49759,-7.13412 8.2817,-12.67113 -6.75753,-11.63501 -8.74481,-39.92368 4.52462,-45.30921 13.26947,-5.38552 35.99105,-2.59158 57.27704,-10.28326 10.14512,-3.66595 24.37867,-6.05994 33.17571,-24.1875 1.95028,1.6896 3.9004,3.0311 5.80294,4.05517 5.32815,17.19065 -5.12489,33.9329 7.93806,33.3216 15.38559,-0.72004 5.31916,-10.88395 33.20168,-25.49409 4.31392,-2.26049 2.04359,-8.2744 -3.75247,-7.91044 5.13211,-6.6396 -2.92671,-10.66888 -11.34655,-5.24791 2.44305,-2.99399 4.72199,-5.64109 6.15125,-8.41081 10.35198,-20.06097 39.57321,-41.10138 15.0844,-58.16031 -10.50021,-7.31445 -14.05742,-8.11824 -31.84311,-6.92938 -10.76477,-36.10516 -29.7268,-75.91346 -74.26769,-93.03523 z"
       style="display:inline;fill:#fff9f5;fill-opacity:1;stroke:none;stroke-width:11.33858282;stroke-linecap:butt;stroke-linejoin:miter;stroke-miterlimit:4;stroke-dasharray:none;stroke-opacity:1"
       id="path1148" />
  </g>
  <g
     sodipodi:insensitive="true"
     style="display:inline"
     id="layer1"
     inkscape:groupmode="layer"
     inkscape:label="dog"
     transform="translate(-38.946243,-90.798412)">
    <path
       sodipodi:nodetypes="csssccsccccssszsccssccccssssccsssc"
       id="path835"
       d="m 110.72185,145.68029 c -2.97047,6.33622 -15.5184,5.38277 -19.637101,9.1743 -2.181982,2.00865 -4.068894,10.97261 -1.741267,16.60732 1.183973,2.86616 3.915814,2.05418 8.628957,4.94352 2.178481,1.33549 0.648055,7.23773 0.648055,7.23773 m 0.232447,-1.0895 c 0,0 -4.420537,3.50573 -7.03303,4.21584 -2.463699,0.66967 -4.930189,1.60053 -4.71876,4.84244 m 3.927218,-2.25833 c -7.963833,3.10096 -4.315837,6.52541 -0.902722,5.52902 m 3.700837,-4.61616 c -5.683578,2.17714 -4.138106,7.74975 -0.444994,5.23325 2.310984,-1.57471 6.538037,-8.24596 11.66662,-10.41267 2.81828,-1.19066 3.04207,-1.88757 2.1912,-3.35257 -1.78793,-3.07843 -2.31374,-10.56314 1.19714,-11.98806 3.51088,-1.42492 9.52263,-0.68569 15.15455,-2.72078 2.68423,-0.96995 6.45019,-1.60336 8.77317,-6.40358 m 7.81007,-2.70925 c 4.72053,-5.48048 -0.59313,-11.11224 -1.04217,-12.88703 -2.64756,-10.46404 -7.25331,-23.59453 -20.79457,-28.79987 -17.75278,-6.82427 -35.373572,-9.70906 -45.042475,-3.93952 m 3.514085,-3.79829 c -3.670861,-1.42879 -6.288707,-2.76878 -10.257145,-4.59016 m 4.41276,2.05875 c 0,0 2.535381,-1.63097 3.092021,-4.55902 0.730998,-3.845212 -1.099117,-9.431808 -3.029601,-8.32485 -4.02436,2.307606 -5.89881,8.25424 -7.906873,8.5514 -3.177927,0.47028 -8.494107,0.0454 -10.800386,0.93024 -2.576609,0.98854 -5.042931,1.13314 -6.974528,6.55959 m 1.112778,-2.48813 c -0.561537,0.34156 -1.003342,0.68174 -1.978979,0.62198 -3.830673,-0.23463 -3.605884,12.88273 -3.164903,15.19844 0.440978,2.3157 5.863028,4.5013 10.862894,4.95282 3.072776,0.27749 3.501447,2.9129 10.441167,4.00864"
       style="fill:none;stroke:#000000;stroke-width:0.264583px;stroke-linecap:butt;stroke-linejoin:miter;stroke-opacity:1" />
    <path
       sodipodi:nodetypes="csc"
       id="path837"
       d="m 107.66419,143.29856 c -5.66135,1.82625 -10.971036,2.73033 -15.694199,3.10461 -3.635094,0.28806 -7.715081,0.0377 -10.637069,-1.24064"
       style="fill:none;stroke:#000000;stroke-width:0.264583px;stroke-linecap:butt;stroke-linejoin:miter;stroke-opacity:1" />
    <path
       sodipodi:nodetypes="cssscccccsc"
       id="path839"
       d="m 78.692383,141.55386 c 0.690274,1.84257 2.698693,2.70711 2.672452,3.89081 -0.17169,7.74484 -0.985192,12.9418 -1.11574,20.05534 -0.03687,2.00925 -5.133319,4.97987 -7.890854,8.25357 -1.656893,1.96703 -8.072815,-0.9018 -1.465464,-3.43494 m -2.19149,-1.46098 c -4.697224,1.12834 -5.777104,4.42359 -0.663627,4.24097 m -2.815391,-2.5158 c -0.992008,-3.23255 4.17273,-3.09223 7.867735,-5.2794 1.386585,-10.56029 -6.377255,-16.6792 -9.991035,-28.09482 -2.046345,-6.46423 1.846518,-12.73673 1.846518,-12.73673"
       style="fill:none;stroke:#000000;stroke-width:0.264583px;stroke-linecap:butt;stroke-linejoin:miter;stroke-opacity:1" />
    <path
       sodipodi:nodetypes="cc"
       id="path841"
       d="m 103.36431,144.53271 c 2.73936,0.7305 4.29221,1.94188 5.38796,3.5855"
       style="fill:none;stroke:#000000;stroke-width:0.264583px;stroke-linecap:butt;stroke-linejoin:miter;stroke-opacity:1" />
    <path
       sodipodi:nodetypes="cc"
       id="path843"
       d="m 81.795541,109.52432 c -5.300524,-2.44215 -10.745882,-0.23212 -13.234585,2.98117"
       style="fill:none;stroke:#000000;stroke-width:0.264583px;stroke-linecap:butt;stroke-linejoin:miter;stroke-opacity:1" />
    <path
       sodipodi:nodetypes="csc"
       id="path849"
       d="m 56.433804,109.74544 c 1.095747,-2.73936 3.647604,-7.10849 4.625505,-6.75418 2.153745,0.78034 2.553812,8.45476 1.092818,11.19412"
       style="fill:none;stroke:#000000;stroke-width:0.264583px;stroke-linecap:butt;stroke-linejoin:miter;stroke-opacity:1" />
    <path
       sodipodi:nodetypes="cc"
       id="path851"
       d="m 61.657896,103.42625 c 0,0 2.077949,2.86104 2.625822,7.06139"
       style="fill:none;stroke:#000000;stroke-width:0.264583px;stroke-linecap:butt;stroke-linejoin:miter;stroke-opacity:1" />
    <path
       sodipodi:nodetypes="cc"
       id="path853"
       d="m 62.705854,117.23595 c 2.191491,-1.09574 3.586728,-2.61371 3.22148,-5.90095"
       style="fill:none;stroke:#000000;stroke-width:0.264583px;stroke-linecap:butt;stroke-linejoin:miter;stroke-opacity:1" />
    <path
       sodipodi:nodetypes="cc"
       id="path855"
       d="m 54.90413,126.87269 c 2.921987,-0.36524 4.813982,-4.87973 6.274976,-7.43647"
       style="fill:none;stroke:#000000;stroke-width:0.264583px;stroke-linecap:butt;stroke-linejoin:miter;stroke-opacity:1" />
    <path
       sodipodi:nodetypes="cssc"
       id="path857"
       d="m 137.98724,140.84068 c 4.70603,-0.31374 5.64721,-0.10107 8.42539,1.83421 6.47933,4.51351 -1.25212,10.08045 -3.99108,15.38825 -0.98166,1.90235 -3.47834,3.58612 -4.0997,6.95801"
       style="fill:none;stroke:#000000;stroke-width:0.264583px;stroke-linecap:butt;stroke-linejoin:miter;stroke-opacity:1" />
    <path
       sodipodi:nodetypes="csc"
       id="path859"
       d="m 129.88654,157.65214 c 2.66675,4.23543 5.86313,5.26527 7.84338,4.54916 1.76892,-0.63969 4.23544,-6.27471 1.09808,-11.29448"
       style="fill:none;stroke:#000000;stroke-width:0.264583px;stroke-linecap:butt;stroke-linejoin:miter;stroke-opacity:1" />
    <path
       sodipodi:nodetypes="cssc"
       id="path861"
       d="m 133.90202,161.69815 c 1.41181,4.54916 -1.35389,8.97888 2.10235,8.81714 4.07077,-0.19051 1.40736,-2.87971 8.78461,-6.74531 1.63882,-0.85872 -0.31374,-3.76483 -3.4511,-0.78434"
       style="fill:none;stroke:#000000;stroke-width:0.264583px;stroke-linecap:butt;stroke-linejoin:miter;stroke-opacity:1" />
    <path
       sodipodi:nodetypes="cc"
       id="path863"
       d="m 140.78163,160.30371 c 2.24015,-1.44951 4.37238,-0.38343 3.01072,1.37355"
       style="fill:none;stroke:#000000;stroke-width:0.264583px;stroke-linecap:butt;stroke-linejoin:miter;stroke-opacity:1" />
  </g>
</svg>
