<?xml version="1.0" encoding="UTF-8" standalone="no"?>
<svg
   xmlns:dc="http://purl.org/dc/elements/1.1/"
   xmlns:cc="http://creativecommons.org/ns#"
   xmlns:rdf="http://www.w3.org/1999/02/22-rdf-syntax-ns#"
   xmlns:svg="http://www.w3.org/2000/svg"
   xmlns="http://www.w3.org/2000/svg"
   xmlns:sodipodi="http://sodipodi.sourceforge.net/DTD/sodipodi-0.dtd"
   xmlns:inkscape="http://www.inkscape.org/namespaces/inkscape"
   width="112.12086mm"
   height="107.47334mm"
   viewBox="0 0 112.12086 107.47333"
   version="1.1"
   id="svg8"
   inkscape:version="1.0 (4035a4f, 2020-05-01)"
   sodipodi:docname="dogs-business.svg">
  <defs
     id="defs2">
    <inkscape:path-effect
       miter_limit="100"
       jointype="extrapolated"
       smoothing="0.5"
       end_offset="0.2"
       attach_start="0.2"
       stroke_width="2"
       lpeversion="1"
       is_visible="true"
       id="path-effect1013"
       effect="taper_stroke" />
    <inkscape:path-effect
       miter_limit="100"
       jointype="extrapolated"
       smoothing="0.5"
       end_offset="0.29026621"
       attach_start="0.2"
       stroke_width="2"
       lpeversion="1"
       is_visible="true"
       id="path-effect1011"
       effect="taper_stroke" />
    <inkscape:path-effect
       miter_limit="100"
       jointype="extrapolated"
       smoothing="0.5"
       end_offset="0.49487035"
       attach_start="0.2"
       stroke_width="0.5"
       lpeversion="1"
       is_visible="true"
       id="path-effect1009"
       effect="taper_stroke" />
    <inkscape:path-effect
       miter_limit="100"
       jointype="extrapolated"
       smoothing="0.5"
       end_offset="0.43930371"
       attach_start="0.51669705"
       stroke_width="0.5"
       lpeversion="1"
       is_visible="true"
       id="path-effect1007"
       effect="taper_stroke" />
    <inkscape:path-effect
       miter_limit="100"
       jointype="extrapolated"
       smoothing="0.5"
       end_offset="0.32922883"
       attach_start="0.4636841"
       stroke_width="0.5"
       lpeversion="1"
       is_visible="true"
       id="path-effect1005"
       effect="taper_stroke" />
    <inkscape:path-effect
       miter_limit="100"
       jointype="extrapolated"
       smoothing="0.5"
       end_offset="0.4247389"
       attach_start="0.45657608"
       stroke_width="0.5"
       lpeversion="1"
       is_visible="true"
       id="path-effect1003"
       effect="taper_stroke" />
    <inkscape:path-effect
       miter_limit="100"
       jointype="extrapolated"
       smoothing="0.5"
       end_offset="0.61901002"
       attach_start="0.2"
       stroke_width="2"
       lpeversion="1"
       is_visible="true"
       id="path-effect1001"
       effect="taper_stroke" />
    <inkscape:path-effect
       miter_limit="100"
       jointype="extrapolated"
       smoothing="0.5"
       end_offset="0.76404454"
       attach_start="0.2"
       stroke_width="2"
       lpeversion="1"
       is_visible="true"
       id="path-effect999"
       effect="taper_stroke" />
    <inkscape:path-effect
       miter_limit="100"
       jointype="extrapolated"
       smoothing="0.5"
       end_offset="0.77369866"
       attach_start="0.2"
       stroke_width="2"
       lpeversion="1"
       is_visible="true"
       id="path-effect997"
       effect="taper_stroke" />
    <inkscape:path-effect
       miter_limit="100"
       jointype="extrapolated"
       smoothing="0.5"
       end_offset="0.2567836"
       attach_start="0.66843023"
       stroke_width="2"
       lpeversion="1"
       is_visible="true"
       id="path-effect995"
       effect="taper_stroke" />
    <inkscape:path-effect
       miter_limit="100"
       jointype="extrapolated"
       smoothing="0.5"
       end_offset="0.59635148"
       attach_start="0.24161323"
       stroke_width="2"
       lpeversion="1"
       is_visible="true"
       id="path-effect993"
       effect="taper_stroke" />
    <inkscape:path-effect
       miter_limit="100"
       jointype="extrapolated"
       smoothing="0.5"
       end_offset="0.2"
       attach_start="0.47527518"
       stroke_width="2"
       lpeversion="1"
       is_visible="true"
       id="path-effect991"
       effect="taper_stroke" />
    <inkscape:path-effect
       miter_limit="100"
       jointype="extrapolated"
       smoothing="0.5"
       end_offset="0.2"
       attach_start="0.29013117"
       stroke_width="2"
       lpeversion="1"
       is_visible="true"
       id="path-effect989"
       effect="taper_stroke" />
    <inkscape:path-effect
       miter_limit="100"
       jointype="extrapolated"
       smoothing="0.5"
       end_offset="0.2"
       attach_start="0.10582462"
       stroke_width="2"
       lpeversion="1"
       is_visible="true"
       id="path-effect987"
       effect="taper_stroke" />
    <inkscape:path-effect
       miter_limit="100"
       jointype="extrapolated"
       smoothing="0.5"
       end_offset="0.2"
       attach_start="0.27313847"
       stroke_width="2"
       lpeversion="1"
       is_visible="true"
       id="path-effect969"
       effect="taper_stroke" />
    <inkscape:path-effect
       miter_limit="100"
       jointype="extrapolated"
       smoothing="0.5"
       end_offset="0.66561043"
       attach_start="1.0880738"
       stroke_width="2"
       lpeversion="1"
       is_visible="true"
       id="path-effect967"
       effect="taper_stroke" />
    <inkscape:path-effect
       miter_limit="100"
       jointype="extrapolated"
       smoothing="0.5"
       end_offset="0.2"
       attach_start="0.38735717"
       stroke_width="2"
       lpeversion="1"
       is_visible="true"
       id="path-effect965"
       effect="taper_stroke" />
    <inkscape:path-effect
       miter_limit="100"
       jointype="extrapolated"
       smoothing="0.5"
       end_offset="0.6349591"
       attach_start="0.3018402"
       stroke_width="2"
       lpeversion="1"
       is_visible="true"
       id="path-effect963"
       effect="taper_stroke" />
  </defs>
  <sodipodi:namedview
     fit-margin-right="2"
     fit-margin-bottom="2"
     fit-margin-top="2"
     fit-margin-left="2"
     id="base"
     pagecolor="#ffffff"
     bordercolor="#666666"
     borderopacity="1.0"
     inkscape:pageopacity="0.0"
     inkscape:pageshadow="2"
     inkscape:zoom="1.2918955"
     inkscape:cx="271.18562"
     inkscape:cy="200.03712"
     inkscape:document-units="mm"
     inkscape:current-layer="layer1"
     inkscape:document-rotation="0"
     showgrid="false"
     inkscape:snap-nodes="false"
     inkscape:object-paths="true"
     inkscape:window-width="1440"
     inkscape:window-height="787"
     inkscape:window-x="0"
     inkscape:window-y="23"
     inkscape:window-maximized="0" />
  <metadata
     id="metadata5">
    <rdf:RDF>
      <cc:Work
         rdf:about="">
        <dc:format>image/svg+xml</dc:format>
        <dc:type
           rdf:resource="http://purl.org/dc/dcmitype/StillImage" />
        <dc:title />
      </cc:Work>
    </rdf:RDF>
  </metadata>
  <g
     sodipodi:insensitive="true"
     transform="translate(-38.946243,-90.798412)"
     inkscape:groupmode="layer"
     id="layer2"
     inkscape:label="fill"
     style="display:inline">
    <path
       id="path910"
       style="display:inline;fill:none;stroke:#000000;stroke-width:0.999999px;stroke-linecap:butt;stroke-linejoin:miter;stroke-opacity:1"
       d="m 521.52658,532.31123 c 0,0 0,0 0,0"
       transform="scale(0.26458333)" />
    <path
       id="path1148"
       style="display:inline;fill:#fff9f5;fill-opacity:1;stroke:none;stroke-width:11.3386;stroke-linecap:butt;stroke-linejoin:miter;stroke-miterlimit:4;stroke-dasharray:none;stroke-opacity:1"
       d="M 447.25977,439.27907 C 396.09169,419.60969 345.21369,408.5994 308.12079,414.09506 c -5.94989,-2.81239 -11.92678,-4.01689 -17.72426,-4.02445 -8.12474,-3.1624 -14.82178,-6.17555 -22.06522,-9.54924 l -0.11818,-0.0552 c 0,0 9.58255,-6.16429 11.68637,-17.23094 2.76284,-14.53307 -4.15413,-35.64776 -11.45045,-31.464 -15.21018,8.72166 -22.29471,31.19713 -29.88424,32.32025 -12.01107,1.77744 -32.10371,0.17159 -40.82036,3.51587 -7.91809,3.03783 -15.56062,3.96699 -22.10997,15.31041 -2.16703,1.36872 -3.83684,2.65459 -7.52429,2.42858 -14.47813,-0.88679 -13.62854,48.69063 -11.96184,57.44292 1.66668,8.75225 22.15948,17.01275 41.05661,18.71932 11.61364,1.04878 13.23381,11.00938 39.46711,15.11448 -0.82968,6.75723 -0.60542,14.3235 1.81221,21.96057 13.65837,43.14565 43.00203,66.27224 37.76139,106.18518 -13.96537,8.26647 -33.48564,7.73613 -29.75951,19.97794 -4.57204,4.82506 -1.90163,9.93298 10.66729,9.49255 1.84641,4.70411 12.47983,7.03374 16.3265,2.46705 10.42218,-12.37304 29.68435,-23.60058 29.8237,-31.1946 0.49341,-26.88582 3.56806,-46.52787 4.21697,-75.79971 0.008,-0.3651 -0.0351,-0.72189 -0.12151,-1.06998 11.04464,4.83519 26.46507,5.78143 40.20401,4.6927 13.24346,-1.04946 27.70699,-3.201 43.04666,-7.06481 10.37193,2.7563 16.24097,7.33474 20.3907,13.5402 -17.52461,14.05814 -53.59213,13.32374 -66.78316,25.46698 -8.24687,7.59175 -15.37851,41.47125 -6.58118,62.76779 4.47487,10.83273 14.79994,7.76383 32.61339,18.68417 6.04267,3.70443 4.53513,16.70532 3.31641,23.29977 0,0 -16.69607,13.18767 -26.57006,15.87155 -9.31161,2.53104 -18.63378,6.04925 -17.85408,18.32142 -8.53186,8.50616 1.7123,15.18527 11.46116,12.38963 1.04174,4.5072 5.78575,6.72045 12.29495,2.28506 8.73443,-5.95166 24.7107,-31.16583 44.09428,-39.35497 10.65177,-4.50013 11.49759,-7.13412 8.2817,-12.67113 -6.75753,-11.63501 -8.74481,-39.92368 4.52462,-45.30921 13.26947,-5.38552 35.99105,-2.59158 57.27704,-10.28326 10.14512,-3.66595 24.37867,-6.05994 33.17571,-24.1875 1.95028,1.6896 3.9004,3.0311 5.80294,4.05517 5.32815,17.19065 -5.12489,33.9329 7.93806,33.3216 15.38559,-0.72004 5.31916,-10.88395 33.20168,-25.49409 4.31392,-2.26049 2.04359,-8.2744 -3.75247,-7.91044 5.13211,-6.6396 -2.92671,-10.66888 -11.34655,-5.24791 2.44305,-2.99399 4.72199,-5.64109 6.15125,-8.41081 10.35198,-20.06097 39.57321,-41.10138 15.0844,-58.16031 -10.50021,-7.31445 -14.05742,-8.11824 -31.84311,-6.92938 -10.76477,-36.10516 -29.7268,-75.91346 -74.26769,-93.03523 z"
       transform="scale(0.26458333)"
       sodipodi:nodetypes="sccccssssccsscscccssccsccssscsccsssssccssccsscs" />
  </g>
  <g
     transform="translate(-38.946243,-90.798412)"
     inkscape:label="details"
     inkscape:groupmode="layer"
     id="layer1"
     style="display:inline">
    <path
       id="path985"
       d="m 46.458136,106.62592 c -0.561537,0.34156 -1.003342,0.68174 -1.978979,0.62198 -3.830673,-0.23463 -3.605884,12.88273 -3.164903,15.19844 0.440978,2.3157 5.863028,4.5013 10.862894,4.95282 3.072776,0.27749 3.501447,2.9129 10.441167,4.00864"
       style="fill:none;stroke:#000000;stroke-width:0.264583px;stroke-linecap:butt;stroke-linejoin:miter;stroke-opacity:1" />
    <path
       inkscape:original-d="m 70.964725,105.95669 c 0,0 2.535381,-1.63097 3.092021,-4.55902 0.730998,-3.845212 -1.099117,-9.431808 -3.029601,-8.32485 -4.02436,2.307606 -5.89881,8.25424 -7.906873,8.5514 -3.177927,0.47028 -8.494107,0.0454 -10.800386,0.93024 -2.576609,0.98854 -5.042931,1.13314 -6.974528,6.55959"
       inkscape:path-effect="#path-effect1013"
       id="path983"
       d="m 70.624457,104.97001 c -0.142657,0.0122 0.202495,0.69127 0.301205,0.91517 0,0 0,0 0,0 0.02076,0.0471 0.03906,0.0715 0.03906,0.0715 0,0 0.01502,0.0266 0.05093,0.0638 0,0 0,0 0,0 0.159791,0.16528 0.743186,0.71104 0.825605,0.53682 0.754367,-0.5783 2.688654,-2.29412 3.197893,-4.97284 0.810082,-4.261209 -1.269869,-11.236713 -4.50944,-9.379112 -4.228115,2.424441 -6.252361,8.236782 -7.555828,8.429672 -3.116417,0.46118 -8.560977,0.0454 -11.012198,0.98583 -1.858725,0.71311 -4.307562,1.0532 -6.254806,4.30887 -0.857701,1.44167 -0.361521,3.18436 -0.361521,3.18436 0,0 1.41986,-1.06448 2.077938,-2.15775 1.458371,-2.43831 2.990942,-2.59965 5.254796,-3.4682 2.161332,-0.82923 7.349132,-0.39527 10.588569,-0.87465 2.677073,-0.39617 4.427022,-6.476456 8.257918,-8.673128 0.45904,-0.263218 2.191868,3.892966 1.549762,7.270588 -0.381385,2.00616 -1.87051,3.31495 -2.449884,3.7591 z"
       style="fill:#000000;stroke:none;stroke-width:0.26458300000000001px;stroke-linecap:butt;stroke-linejoin:miter;stroke-opacity:1;fill-rule:nonzero" />
    <path
       inkscape:original-d="m 76.80911,108.4881 c -3.670861,-1.42879 -6.288707,-2.76878 -10.257145,-4.59016"
       inkscape:path-effect="#path-effect1011"
       id="path981"
       d="m 74.323959,108.55783 c 1.066105,0.45122 2.485151,-0.0697 2.485151,-0.0697 0,0 -0.688568,-1.34164 -1.705616,-1.77209 -1.686903,-0.71397 -3.227665,-1.4348 -4.953466,-2.24496 -1.589408,-0.74616 -3.598063,-0.57311 -3.598063,-0.57311 0,0 1.168715,1.64209 2.748164,2.38354 1.727023,0.81074 3.299799,1.54667 5.02383,2.27635 z"
       style="fill:#000000;fill-rule:nonzero;stroke:none;stroke-width:0.264583px;stroke-linecap:butt;stroke-linejoin:miter;stroke-opacity:1" />
    <path
       inkscape:original-d="m 140.17424,157.91281 c 4.72053,-5.48048 -0.59313,-11.11224 -1.04217,-12.88703 -2.64756,-10.46404 -7.25331,-23.59453 -20.79457,-28.79987 -17.75278,-6.82427 -35.373572,-9.70906 -45.042475,-3.93952"
       inkscape:path-effect="#path-effect995"
       id="path979"
       d="m 139.75409,148.38088 c 0.75403,1.46995 1.36517,2.78711 1.57937,4.1841 0,0 0,0 0,0 0.25524,1.47008 -0.0712,2.86484 -0.43113,3.8295 -0.36262,0.9718 -0.72809,1.51833 -0.72809,1.51833 0,0 2.60228,-1.51636 2.69432,-5.44424 0,0 0,0 0,0 0.0181,-1.71279 -0.49745,-3.42971 -1.34252,-5.01514 -0.68986,-1.31803 -1.33146,-2.30511 -1.42452,-2.67294 -2.66759,-10.5432 -7.3807,-24.09689 -21.40521,-29.48799 -13.26036,-5.09736 -26.572439,-8.05454 -36.634899,-6.81102 -2.497325,0.30154 -4.669724,1.11916 -6.323038,2.0554 -1.587896,0.89919 -2.443348,1.74951 -2.443348,1.74951 0,0 1.128529,-0.42453 2.810726,-0.82189 1.954576,-0.4617 3.668327,-0.6775 6.200955,-0.99812 9.613606,-1.18805 22.544024,1.64648 35.671984,6.69294 13.05801,5.01958 17.5564,17.72687 20.18393,28.11174 0.20471,0.80911 0.93051,1.84703 1.59147,3.10982 z"
       style="fill:#000000;fill-rule:nonzero;stroke:none;stroke-width:0.264583px;stroke-linecap:butt;stroke-linejoin:miter;stroke-opacity:1" />
    <path
       inkscape:original-d="m 93.826484,190.26647 c -5.683578,2.17714 -4.138106,7.74975 -0.444994,5.23325 2.310984,-1.57471 6.538037,-8.24596 11.66662,-10.41267 2.81828,-1.19066 3.04207,-1.88757 2.1912,-3.35257 -1.78793,-3.07843 -2.31374,-10.56314 1.19714,-11.98806 3.51088,-1.42492 9.52263,-0.68569 15.15455,-2.72078 2.68423,-0.96995 6.45019,-1.60336 8.77317,-6.40358"
       inkscape:path-effect="#path-effect991"
       id="path977"
       d="m 91.075894,194.42441 c -0.14512,-0.97355 0.576262,-2.00069 1.34788,-2.84665 0.762474,-0.83593 1.40271,-1.31129 1.40271,-1.31129 0,0 -0.804384,-0.0471 -1.989934,0.45393 -1.15738,0.48914 -2.649185,1.64878 -2.760451,3.73259 0.03441,2.407 2.382747,3.56691 4.868493,1.87312 2.542425,-1.73242 6.550258,-8.22983 11.492688,-10.31789 3.23823,-1.36808 3.92266,-2.61361 2.66676,-4.77597 -1.57426,-2.71055 -2.00291,-9.4588 0.70848,-10.55924 3.27075,-1.32746 9.34305,-0.62 15.11832,-2.70689 2.03467,-0.73523 5.20107,-1.38301 7.6505,-4.2826 1.08857,-1.29302 0.78283,-3.06146 0.78283,-3.06146 0,0 -1.52755,0.84763 -2.31066,1.77083 -2.02927,2.40221 -4.54225,2.87558 -6.80235,3.69227 -5.48857,1.98329 -11.43977,1.21229 -15.19078,2.73467 -4.31037,1.7494 -3.6874,9.97057 -1.6858,13.41688 0.4364,0.75139 0.6729,0.92007 -1.71564,1.92917 -5.314732,2.24536 -9.761009,9.09045 -11.840553,10.50745 -1.383762,0.9429 -1.734889,0.28296 -1.742493,-0.24892 z"
       style="fill:#000000;fill-rule:nonzero;stroke:none;stroke-width:0.264583px;stroke-linecap:butt;stroke-linejoin:miter;stroke-opacity:1" />
    <path
       inkscape:original-d="m 91.028369,189.35361 c -7.963833,3.10096 -4.315837,6.52541 -0.902722,5.52902"
       inkscape:path-effect="#path-effect989"
       id="path975"
       d="m 87.53224,192.6283 c 0.587327,-0.82641 1.47455,-1.57236 2.220724,-2.19425 0.746175,-0.62188 1.275405,-1.08044 1.275405,-1.08044 0,0 -0.685761,-0.0327 -1.700954,0.15962 -1.012152,0.19179 -2.383969,0.66548 -3.380267,1.89545 -1.652048,2.14709 -0.181586,4.14092 2.008725,4.56131 1.443629,0.2717 2.169774,-1.08736 2.169774,-1.08736 0,0 -1.20575,-0.7604 -1.792788,-0.87679 -0.893099,-0.17141 -1.407808,-0.5884 -0.800619,-1.37754 z"
       style="fill:#000000;fill-rule:nonzero;stroke:none;stroke-width:0.264583px;stroke-linecap:butt;stroke-linejoin:miter;stroke-opacity:1" />
    <path
       id="path973"
       d="m 98.852941,182.55366 c 0,0 -4.420537,3.50573 -7.03303,4.21584 -2.463699,0.66967 -4.930189,1.60053 -4.71876,4.84244"
       style="fill:none;stroke:#000000;stroke-width:0.264583px;stroke-linecap:butt;stroke-linejoin:miter;stroke-opacity:1" />
    <path
       inkscape:original-d="m 110.72185,145.68029 c -2.97047,6.33622 -15.5184,5.38277 -19.637101,9.1743 -2.181982,2.00865 -4.068894,10.97261 -1.741267,16.60732 1.183973,2.86616 3.915814,2.05418 8.628957,4.94352 2.178481,1.33549 0.648055,7.23773 0.648055,7.23773"
       inkscape:path-effect="#path-effect987"
       id="path835"
       d="m 110.19503,148.15865 c 0.98197,-1.00614 0.52682,-2.47836 0.52682,-2.47836 0,0 -1.39249,0.49796 -1.96013,1.08351 -4.03195,4.14315 -14.356082,3.67449 -18.354251,7.35507 -2.594175,2.38809 -4.416968,11.84537 -1.988234,17.72483 1.38757,3.35903 4.508132,2.64186 9.030559,5.41428 1.061766,0.6509 0.644567,4.0559 0.333254,5.55768 -0.03138,0.1513 0.187758,0.35528 0.408466,0.52668 0.115945,0.10709 0.395326,0.28314 0.409486,0.29223 0.02256,0.01 0.01949,0.009 0.01949,0.009 0,0 -0.0033,-2.2e-4 0.02123,0.002 0.0676,-0.005 0.316068,-0.0223 0.499925,-0.0803 0.275617,-0.0632 0.565221,-0.17633 0.599767,-0.34308 0.332327,-1.60316 1.145047,-6.20274 -1.246328,-7.66874 -4.908968,-3.00939 -7.252434,-2.11268 -8.227356,-4.47276 -2.22652,-5.38996 -0.275489,-13.8606 1.494301,-15.48981 3.412559,-3.14148 13.92487,-2.79919 18.433,-7.43166 z"
       style="fill:#000000;fill-rule:nonzero;stroke:none;stroke-width:0.264583px;stroke-linecap:butt;stroke-linejoin:miter;stroke-opacity:1" />
    <path
       inkscape:original-d="m 107.66419,143.29856 c -5.66135,1.82625 -10.971036,2.73033 -15.694199,3.10461 -3.635094,0.28806 -7.715081,0.0377 -10.637069,-1.24064"
       inkscape:path-effect="#path-effect969"
       style="fill:#000000;fill-rule:nonzero;stroke:none;stroke-width:0.264583px;stroke-linecap:butt;stroke-linejoin:miter;stroke-opacity:1"
       d="m 103.34935,145.56723 c 2.36238,-0.58576 4.31484,-2.26867 4.31484,-2.26867 0,0 -2.55663,-0.22784 -4.79617,0.32745 -3.90456,0.96814 -7.593254,1.51214 -10.977026,1.78029 -2.845538,0.22549 -5.889234,0.11356 -8.420778,-0.56236 -0.838886,-0.22501 -2.137294,0.31859 -2.137294,0.31859 0,0 0.530086,1.32352 1.621365,1.61372 2.782172,0.74284 6.124089,0.8592 9.0947,0.62379 3.4824,-0.27595 7.279629,-0.83587 11.300363,-1.83281 z"
       id="path837"
       sodipodi:nodetypes="csc" />
    <path
       inkscape:original-d="m 65.222269,170.58283 c -0.992008,-3.23255 4.17273,-3.09223 7.867735,-5.2794 1.386585,-10.56029 -6.377255,-16.6792 -9.991035,-28.09482 -2.046345,-6.46423 1.846518,-12.73673 1.846518,-12.73673"
       inkscape:path-effect="#path-effect963"
       id="path961"
       d="m 65.151492,167.65709 c -0.739721,0.69228 -0.740148,1.60791 -0.517675,2.16832 0.225781,0.56873 0.588452,0.75742 0.588452,0.75742 0,0 0.138776,-0.37562 0.401853,-0.71428 0.295614,-0.38054 0.575858,-0.54559 0.818456,-0.68401 1.166387,-0.9859 4.448766,-1.41761 7.156804,-3.02057 a 11.422365,11.422365 0 0 0 0.414569,-0.25751 21.083481,21.083481 0 0 0 0.06754,-0.47285 c 1.438497,-10.95565 -6.485383,-17.33233 -10.029155,-28.5268 -0.686765,-2.16944 -0.650726,-4.33328 -0.313767,-6.22997 l -0.0493,0.16498 c 1.066331,-2.94592 1.253108,-6.31764 1.256221,-6.36963 0,0 0,0 0,0 -9e-6,-4.1e-4 -7e-6,-3.1e-4 -7e-6,-3.1e-4 0,0 5e-5,-3e-5 -3.03e-4,1.6e-4 0,0 0,0 0,0 -0.02994,0.039 -2.017987,2.65158 -3.126479,5.68998 l -0.0493,0.16498 c -0.378222,2.12896 -0.431041,4.63343 0.376193,7.18341 3.683788,11.63677 11.287588,17.49791 9.952915,27.66284 l 0.482112,-0.73036 c -2.45137,1.45103 -5.761174,1.80434 -7.429134,3.2142 z"
       style="fill:#000000;fill-rule:nonzero;stroke:none;stroke-width:0.264583px;stroke-linecap:butt;stroke-linejoin:miter;stroke-opacity:1" />
    <path
       inkscape:original-d="m 68.701287,168.85766 c -4.697224,1.12834 -5.777104,4.42359 -0.663627,4.24097"
       inkscape:path-effect="#path-effect965"
       id="path959"
       d="m 65.813319,171.42604 c 0.430009,-0.63393 1.135593,-1.22031 1.770196,-1.7143 0.634603,-0.494 1.117772,-0.85408 1.117772,-0.85408 0,0 -0.569532,-0.15465 -1.460135,-0.10422 -0.889028,0.0503 -2.150073,0.40677 -3.012876,1.45291 -1.055148,1.37122 -0.646939,2.93477 1.126197,3.57092 1.530031,0.51931 2.683187,-0.67864 2.683187,-0.67864 0,0 -0.313237,-0.23226 -0.729867,-0.49674 -0.390729,-0.24804 -0.919982,-0.56651 -1.277929,-0.70713 -0.487466,-0.17489 -0.406172,-0.22229 -0.216545,-0.46872 z"
       style="fill:#000000;fill-rule:nonzero;stroke:none;stroke-width:0.264583px;stroke-linecap:butt;stroke-linejoin:miter;stroke-opacity:1" />
    <path
       inkscape:original-d="m 78.692383,141.55386 c 0.690274,1.84257 2.698693,2.70711 2.672452,3.89081 -0.17169,7.74484 -0.985192,12.9418 -1.11574,20.05534 -0.03687,2.00925 -5.133319,4.97987 -7.890854,8.25357 -1.656893,1.96703 -8.072815,-0.9018 -1.465464,-3.43494"
       inkscape:path-effect="#path-effect967"
       id="path839"
       d="m 82.30474,147.4722 c 0.02538,-0.67773 0.0062,-1.35517 -0.0423,-2.00763 -0.205846,-1.2996 -1.019681,-1.86142 -1.527057,-2.14945 -1.300668,-0.95165 -2.042998,-1.76126 -2.042998,-1.76126 0,0 0.130214,1.16979 1.16684,2.6237 0.343047,0.58886 0.847828,1.08993 0.608009,1.24721 -0.07704,0.63922 -0.136153,1.3065 -0.161092,1.9726 -0.249355,6.65996 -0.937264,11.5666 -1.056877,18.08429 -0.02482,1.35284 -4.820156,4.2612 -7.655848,7.62768 -0.223975,0.2659 -0.853786,0.39548 -1.594015,0.21665 -0.593632,-0.3076 -1.284323,-0.36902 -1.203209,-0.59203 -0.137113,-0.0702 0.0321,-0.37817 0.210592,-0.69064 0.793491,-1.13457 1.885994,-1.72468 1.885994,-1.72468 0,0 -1.21985,-0.13853 -2.711085,0.81256 -0.457011,0.26109 -0.94052,0.77236 -1.042359,1.6722 0.15261,1.41695 1.27821,2.36764 2.390407,2.46666 1.166648,0.28185 2.709206,0.17737 3.593328,-0.87224 2.683849,-3.18623 8.077633,-6.25135 8.125859,-8.87946 0.118487,-6.45635 0.804581,-11.33607 1.055813,-18.04616 z"
       style="fill:#000000;fill-rule:nonzero;stroke:none;stroke-width:0.264583px;stroke-linecap:butt;stroke-linejoin:miter;stroke-opacity:1" />
    <path
       style="fill:none;stroke:#000000;stroke-width:0.264583px;stroke-linecap:butt;stroke-linejoin:miter;stroke-opacity:1"
       d="m 103.36431,144.53271 c 2.73936,0.7305 4.29221,1.94188 5.38796,3.5855"
       id="path841"
       sodipodi:nodetypes="cc" />
    <path
       inkscape:original-d="m 81.795541,109.52432 c -5.300524,-2.44215 -10.745882,-0.23212 -13.234585,2.98117"
       inkscape:path-effect="#path-effect1001"
       style="fill:#000000;fill-rule:nonzero;stroke:none;stroke-width:0.264583px;stroke-linecap:butt;stroke-linejoin:miter;stroke-opacity:1"
       d="m 78.485046,109.57859 c 1.397478,0.19315 3.310495,-0.0543 3.310495,-0.0543 0,0 -1.102067,-1.65696 -3.035271,-1.92671 -1.034091,-0.14367 -2.050591,-0.14701 -3.029377,-0.0339 -2.406825,0.27005 -4.342873,1.45906 -5.575868,2.69834 -1.199784,1.2059 -1.594069,2.24348 -1.594069,2.24348 0,0 0.822016,-0.74092 2.188766,-1.44219 1.45698,-0.74756 3.188501,-1.27123 5.210686,-1.51284 0.816886,-0.0944 1.663983,-0.0914 2.524638,0.0281 z"
       id="path843"
       sodipodi:nodetypes="cc" />
    <path
       inkscape:original-d="m 56.433804,109.74544 c 1.095747,-2.73936 3.647604,-7.10849 4.625505,-6.75418 2.153745,0.78034 2.553812,8.45476 1.092818,11.19412"
       inkscape:path-effect="#path-effect1007"
       style="fill:#000000;fill-rule:nonzero;stroke:none;stroke-width:0.264583px;stroke-linecap:butt;stroke-linejoin:miter;stroke-opacity:1"
       d="m 58.671613,104.933 c -1.485483,2.26098 -2.237809,4.81244 -2.237809,4.81244 0,0 1.220407,-2.35235 2.655715,-4.53793 0.859275,-1.30815 1.627532,-2.07435 1.884628,-1.9812 1.0379,0.37605 1.699872,2.83755 1.785186,5.5025 0.04189,1.54083 0.06936,2.65283 -0.129387,3.80761 -0.173993,1.01095 -0.477819,1.64896 -0.477819,1.64896 0,0 0.413891,-0.57365 0.719792,-1.59177 0.331916,-1.10469 0.442505,-2.37651 0.387158,-3.8808 -0.08673,-2.70929 -0.737312,-5.45758 -2.114606,-5.9566 -0.67647,-0.24509 -1.600787,0.84916 -2.472858,2.17679 z"
       id="path849"
       sodipodi:nodetypes="csc" />
    <path
       inkscape:original-d="m 61.657896,103.42625 c 0,0 2.077949,2.86104 2.625822,7.06139"
       inkscape:path-effect="#path-effect1009"
       style="fill:#000000;fill-rule:nonzero;stroke:none;stroke-width:0.264583px;stroke-linecap:butt;stroke-linejoin:miter;stroke-opacity:1"
       d="m 62.089536,103.62355 c -0.0967,-0.15277 -0.344625,-0.19326 -0.41673,-0.20057 0,0 0,0 0,0 -0.0112,-0.001 -0.01491,0.003 -0.01491,0.003 0,0 -0.0053,0.002 -0.0079,0.013 0,0 0,0 0,0 -0.0155,0.0652 -0.07093,0.3131 0.01726,0.45202 0.204916,0.32326 0.535526,0.88279 0.890074,1.63544 1.11824,2.37461 1.726409,4.96095 1.726409,4.96095 0,0 -0.09614,-2.67421 -1.274083,-5.17402 -0.364738,-0.77429 -0.705853,-1.35209 -0.920099,-1.69007 z"
       id="path851"
       sodipodi:nodetypes="cc" />
    <path
       inkscape:original-d="m 62.705854,117.23595 c 2.191491,-1.09574 3.586728,-2.61371 3.22148,-5.90095"
       inkscape:path-effect="#path-effect1005"
       style="fill:#000000;fill-rule:nonzero;stroke:none;stroke-width:0.264583px;stroke-linecap:butt;stroke-linejoin:miter;stroke-opacity:1"
       d="m 64.93991,115.16157 c -0.840359,1.2137 -2.234056,2.07438 -2.234056,2.07438 0,0 1.641129,-0.37331 2.643465,-1.78735 0.273224,-0.38972 0.489418,-0.82629 0.639904,-1.32139 0.431263,-1.43468 -0.06189,-2.79221 -0.06189,-2.79221 0,0 -0.03652,1.41181 -0.416501,2.64681 -0.135062,0.44435 -0.328186,0.83353 -0.570923,1.17976 z"
       id="path853"
       sodipodi:nodetypes="cc" />
    <path
       inkscape:original-d="m 54.90413,126.87269 c 2.921987,-0.36524 4.813982,-4.87973 6.274976,-7.43647"
       inkscape:path-effect="#path-effect1003"
       style="fill:#000000;fill-rule:nonzero;stroke:none;stroke-width:0.264583px;stroke-linecap:butt;stroke-linejoin:miter;stroke-opacity:1"
       d="m 58.117511,124.21124 c -0.70189,0.93743 -1.29482,1.64263 -2.015144,2.12775 -0.64731,0.43594 -1.198237,0.5337 -1.198237,0.5337 0,0 0.560317,0.0324 1.318391,-0.31958 0.811396,-0.37674 1.607298,-1.07895 2.298624,-2.04678 0.254468,-0.34806 0.497391,-0.71469 0.729595,-1.08883 1.170429,-1.8874 1.928366,-3.98128 1.928366,-3.98128 0,0 -1.205132,1.86932 -2.353198,3.71762 -0.227149,0.366 -0.46289,0.72159 -0.708397,1.0574 z"
       id="path855"
       sodipodi:nodetypes="cc" />
    <path
       inkscape:original-d="m 137.98724,140.84068 c 4.70603,-0.31374 5.64721,-0.10107 8.42539,1.83421 6.47933,4.51351 -1.25212,10.08045 -3.99108,15.38825 -0.98166,1.90235 -3.47834,3.58612 -4.0997,6.95801"
       inkscape:path-effect="#path-effect997"
       style="fill:#000000;fill-rule:nonzero;stroke:none;stroke-width:0.264583px;stroke-linecap:butt;stroke-linejoin:miter;stroke-opacity:1"
       d="m 140.38773,139.72531 c -1.26701,0.021 -2.40049,1.11537 -2.40049,1.11537 0,0 1.28014,0.90246 2.43281,0.88436 2.51422,-0.0406 3.2924,0.28762 5.42099,1.77039 5.55944,3.87271 -1.24265,8.16854 -4.30815,14.10914 -0.18124,0.35123 -0.43494,0.71015 -0.75757,1.12077 -1.09683,1.35725 -1.87532,2.78077 -2.24283,4.14999 -0.34423,1.28246 -0.21064,2.14582 -0.21064,2.14582 0,0 0.36898,-0.7889 1.09738,-1.71235 0.73554,-0.93249 1.91458,-2.02078 2.92871,-3.3478 0.35343,-0.44981 0.69921,-0.92951 0.96227,-1.43929 2.41436,-4.67877 11.06776,-11.51686 3.67401,-16.66736 -2.3165,-1.61367 -3.63204,-2.17694 -6.59649,-2.12904 z"
       id="path857"
       sodipodi:nodetypes="cssc" />
    <path
       inkscape:original-d="m 129.88654,157.65214 c 2.66675,4.23543 5.86313,5.26527 7.84338,4.54916 1.76892,-0.63969 4.23544,-6.27471 1.09808,-11.29448"
       inkscape:path-effect="#path-effect993"
       style="fill:#000000;fill-rule:nonzero;stroke:none;stroke-width:0.264583px;stroke-linecap:butt;stroke-linejoin:miter;stroke-opacity:1"
       d="m 132.5885,159.46804 c -1.00111,-0.97948 -2.70196,-1.8159 -2.70196,-1.8159 0,0 -0.0199,1.94075 1.30023,3.24249 2.3287,2.28812 4.92458,2.95537 6.88322,2.24707 1.16407,-0.42096 2.10234,-1.81612 2.67319,-3.45963 0.83062,-2.4116 0.40816,-4.76811 -0.32753,-6.40955 -0.72173,-1.61029 -1.58765,-2.3657 -1.58765,-2.3657 0,0 0.43676,1.05834 0.62618,2.63974 0.19837,1.6562 0.0722,3.56326 -0.60028,5.4793 -0.48298,1.39052 -1.20008,2.13958 -1.46405,2.23504 -1.04495,0.37788 -2.85158,0.12294 -4.80135,-1.79286 z"
       id="path859"
       sodipodi:nodetypes="csc" />
    <path
       inkscape:original-d="m 133.90202,161.69815 c 1.41181,4.54916 -1.35389,8.97888 2.10235,8.81714 4.07077,-0.19051 1.40736,-2.87971 8.78461,-6.74531 1.63882,-0.85872 -0.31374,-3.76483 -3.4511,-0.78434"
       inkscape:path-effect="#path-effect999"
       style="fill:#000000;fill-rule:nonzero;stroke:none;stroke-width:0.264583px;stroke-linecap:butt;stroke-linejoin:miter;stroke-opacity:1"
       d="m 135.33034,164.34129 c -0.0542,-1.60134 -1.42832,-2.64314 -1.42832,-2.64314 0,0 -0.61541,1.56327 -0.57036,2.71563 0.10787,2.974 -1.30699,7.28884 2.71946,7.10042 4.6458,-0.21742 2.14591,-3.16114 9.20199,-6.85845 0.68156,-0.35713 1.08593,-0.96244 1.12611,-1.67507 -0.0649,-1.30734 -0.98141,-2.05756 -1.93783,-2.11778 0,0 -1e-5,0 -1e-5,0 -1.32855,-0.0203 -2.10608,0.68118 -2.5348,1.21223 -0.42992,0.53254 -0.5687,0.91051 -0.5687,0.91051 0,0 0.36584,-0.17134 0.95825,-0.36529 0.56856,-0.18614 1.3608,-0.38805 1.82368,-0.0738 0,0 0,0 0,0 0.23464,0.20185 0.32957,0.34817 0.26259,0.32149 0,0 -0.0575,0.0161 -0.0575,0.0161 -7.71696,4.04361 -4.90469,6.47013 -8.36723,6.63217 -1.43959,0.0674 -0.4834,-1.20854 -0.62728,-5.17509 z"
       id="path861"
       sodipodi:nodetypes="cssc" />
    <path
       style="fill:none;stroke:#000000;stroke-width:0.264583px;stroke-linecap:butt;stroke-linejoin:miter;stroke-opacity:1"
       d="m 140.78163,160.30371 c 2.24015,-1.44951 4.37238,-0.38343 3.01072,1.37355"
       id="path863"
       sodipodi:nodetypes="cc" />
  </g>
  <g
     sodipodi:insensitive="true"
     inkscape:label="outline"
     id="layer4"
     inkscape:groupmode="layer">
    <path
       sodipodi:nodetypes="sccccssssccsscscccssccsccssscsccsssssccssccsscs"
       transform="matrix(0.26458333,0,0,0.26458333,-38.946243,-90.798412)"
       d="M 447.25977,439.27907 C 396.09169,419.60969 345.21369,408.5994 308.12079,414.09506 c -5.94989,-2.81239 -11.92678,-4.01689 -17.72426,-4.02445 -8.12474,-3.1624 -14.82178,-6.17555 -22.06522,-9.54924 l -0.11818,-0.0552 c 0,0 9.58255,-6.16429 11.68637,-17.23094 2.76284,-14.53307 -4.15413,-35.64776 -11.45045,-31.464 -15.21018,8.72166 -22.29471,31.19713 -29.88424,32.32025 -12.01107,1.77744 -32.10371,0.17159 -40.82036,3.51587 -7.91809,3.03783 -15.56062,3.96699 -22.10997,15.31041 -2.16703,1.36872 -3.83684,2.65459 -7.52429,2.42858 -14.47813,-0.88679 -13.62854,48.69063 -11.96184,57.44292 1.66668,8.75225 22.15948,17.01275 41.05661,18.71932 11.61364,1.04878 13.23381,11.00938 39.46711,15.11448 -0.82968,6.75723 -0.60542,14.3235 1.81221,21.96057 13.65837,43.14565 43.00203,66.27224 37.76139,106.18518 -13.96537,8.26647 -33.48564,7.73613 -29.75951,19.97794 -4.57204,4.82506 -1.90163,9.93298 10.66729,9.49255 1.84641,4.70411 12.47983,7.03374 16.3265,2.46705 10.42218,-12.37304 29.68435,-23.60058 29.8237,-31.1946 0.49341,-26.88582 3.56806,-46.52787 4.21697,-75.79971 0.008,-0.3651 -0.0351,-0.72189 -0.12151,-1.06998 11.04464,4.83519 26.46507,5.78143 40.20401,4.6927 13.24346,-1.04946 27.70699,-3.201 43.04666,-7.06481 10.37193,2.7563 16.24097,7.33474 20.3907,13.5402 -17.52461,14.05814 -53.59213,13.32374 -66.78316,25.46698 -8.24687,7.59175 -15.37851,41.47125 -6.58118,62.76779 4.47487,10.83273 14.79994,7.76383 32.61339,18.68417 6.04267,3.70443 4.53513,16.70532 3.31641,23.29977 0,0 -16.69607,13.18767 -26.57006,15.87155 -9.31161,2.53104 -18.63378,6.04925 -17.85408,18.32142 -8.53186,8.50616 1.7123,15.18527 11.46116,12.38963 1.04174,4.5072 5.78575,6.72045 12.29495,2.28506 8.73443,-5.95166 24.7107,-31.16583 44.09428,-39.35497 10.65177,-4.50013 11.49759,-7.13412 8.2817,-12.67113 -6.75753,-11.63501 -8.74481,-39.92368 4.52462,-45.30921 13.26947,-5.38552 35.99105,-2.59158 57.27704,-10.28326 10.14512,-3.66595 24.37867,-6.05994 33.17571,-24.1875 1.95028,1.6896 3.9004,3.0311 5.80294,4.05517 5.32815,17.19065 -5.12489,33.9329 7.93806,33.3216 15.38559,-0.72004 5.31916,-10.88395 33.20168,-25.49409 4.31392,-2.26049 2.04359,-8.2744 -3.75247,-7.91044 5.13211,-6.6396 -2.92671,-10.66888 -11.34655,-5.24791 2.44305,-2.99399 4.72199,-5.64109 6.15125,-8.41081 10.35198,-20.06097 39.57321,-41.10138 15.0844,-58.16031 -10.50021,-7.31445 -14.05742,-8.11824 -31.84311,-6.92938 -10.76477,-36.10516 -29.7268,-75.91346 -74.26769,-93.03523 z"
       style="display:inline;fill:none;fill-opacity:1;stroke:#000000;stroke-width:7.55906;stroke-linecap:butt;stroke-linejoin:miter;stroke-miterlimit:4;stroke-dasharray:none;stroke-opacity:1"
       id="path954" />
  </g>
</svg>
