<?xml version="1.0" encoding="UTF-8" standalone="no"?>
<svg
   xmlns:dc="http://purl.org/dc/elements/1.1/"
   xmlns:cc="http://creativecommons.org/ns#"
   xmlns:rdf="http://www.w3.org/1999/02/22-rdf-syntax-ns#"
   xmlns:svg="http://www.w3.org/2000/svg"
   xmlns="http://www.w3.org/2000/svg"
   xmlns:sodipodi="http://sodipodi.sourceforge.net/DTD/sodipodi-0.dtd"
   xmlns:inkscape="http://www.inkscape.org/namespaces/inkscape"
   sodipodi:docname="pee2.svg"
   inkscape:version="1.0 (4035a4f, 2020-05-01)"
   id="svg857"
   version="1.1"
   viewBox="0 0 24.77788 24.507708"
   height="24.507708mm"
   width="24.77788mm">
  <defs
     id="defs851">
    <inkscape:path-effect
       miter_limit="100"
       jointype="extrapolated"
       smoothing="0.5"
       end_offset="0.80527104"
       attach_start="0.75587675"
       stroke_width="0.5"
       lpeversion="1"
       is_visible="true"
       id="path-effect1510"
       effect="taper_stroke" />
    <inkscape:path-effect
       miter_limit="100"
       jointype="extrapolated"
       smoothing="0.5"
       end_offset="0.38347588"
       attach_start="0.35121306"
       stroke_width="0.5"
       lpeversion="1"
       is_visible="true"
       id="path-effect1508"
       effect="taper_stroke" />
    <inkscape:path-effect
       effect="skeletal"
       id="path-effect1480"
       is_visible="true"
       lpeversion="1"
       pattern="m 0.23031926,0.17830417 c -1.12086002,0 -1.15573002,-1.69944997 0,-1.69944997 H 2.6524392 c 1.0452301,0 1.1048302,1.69944997 0,1.69944997 z"
       copytype="repeated"
       prop_scale="0.75665669"
       scale_y_rel="false"
       spacing="1"
       normal_offset="0"
       tang_offset="0"
       prop_units="false"
       vertical_pattern="false"
       hide_knot="false"
       fuse_tolerance="0" />
    <inkscape:path-effect
       fuse_tolerance="0"
       hide_knot="false"
       vertical_pattern="false"
       prop_units="false"
       tang_offset="0"
       normal_offset="0"
       spacing="1"
       scale_y_rel="false"
       prop_scale="0.75665669"
       copytype="repeated"
       pattern="m 0.23031926,0.17830417 c -1.12086002,0 -1.15573002,-1.69944997 0,-1.69944997 H 2.6524392 c 1.0452301,0 1.1048302,1.69944997 0,1.69944997 z"
       lpeversion="1"
       is_visible="true"
       id="path-effect1450"
       effect="skeletal" />
  </defs>
  <sodipodi:namedview
     inkscape:window-maximized="0"
     inkscape:window-y="23"
     inkscape:window-x="0"
     inkscape:window-height="787"
     inkscape:window-width="1440"
     fit-margin-bottom="2"
     fit-margin-right="2"
     fit-margin-left="2"
     fit-margin-top="2"
     inkscape:snap-nodes="false"
     showgrid="false"
     inkscape:document-rotation="0"
     inkscape:current-layer="layer1"
     inkscape:document-units="mm"
     inkscape:cy="59.807505"
     inkscape:cx="2.2051458"
     inkscape:zoom="3.959798"
     inkscape:pageshadow="2"
     inkscape:pageopacity="0.0"
     borderopacity="1.0"
     bordercolor="#666666"
     pagecolor="#ffffff"
     id="base" />
  <metadata
     id="metadata854">
    <rdf:RDF>
      <cc:Work
         rdf:about="">
        <dc:format>image/svg+xml</dc:format>
        <dc:type
           rdf:resource="http://purl.org/dc/dcmitype/StillImage" />
        <dc:title></dc:title>
      </cc:Work>
    </rdf:RDF>
  </metadata>
  <g
     transform="translate(-105.71832,-154.7648)"
     sodipodi:insensitive="true"
     inkscape:label="fill"
     id="layer2"
     inkscape:groupmode="layer">
    <path
       style="display:inline;fill:#ffe920;fill-opacity:1;stroke:none;stroke-width:0.264583px;stroke-linecap:butt;stroke-linejoin:miter;stroke-opacity:1"
       d="m 109.48642,158.18451 c -1.02294,-0.27491 -0.83303,-1.55597 0.33528,-1.23674 0.81617,0.22301 1.60663,0.52308 2.36252,0.89207 0.95897,0.46812 0.39869,1.61574 -0.56027,1.14762 -0.68522,-0.33457 -1.40069,-0.60494 -2.13753,-0.80295 z m 4.27401,2.12686 c -0.89853,-0.68826 -0.12105,-1.70543 0.77748,-1.01717 0.66923,0.51054 1.29414,1.08104 1.86585,1.70336 0.004,0.004 0.008,0.009 0.0117,0.0129 0.74285,0.85273 -0.27515,1.56437 -0.94895,0.86747 -0.004,-0.004 -0.007,-0.008 -0.0108,-0.0117 -0.51919,-0.56813 -1.08725,-1.08915 -1.69531,-1.55492 z m 2.95522,3.60275 c -0.39293,-0.97217 0.71402,-1.62415 1.18885,-0.48955 0.33171,0.7926 0.56521,1.62046 0.74041,2.44118 0.0882,0.41327 -0.0607,0.70947 -0.2743,0.84911 -0.13123,0.086 -0.28938,0.11504 -0.44073,0.082 -0.24058,-0.0525 -0.46457,-0.26053 -0.55236,-0.65502 -0.17151,-0.77077 -0.37883,-1.52747 -0.66187,-2.22774 z m 1.08612,4.78964 c -0.12886,-1.13003 1.14801,-1.27604 1.27688,-0.14601 0.0938,0.81783 0.15639,1.63598 0.20155,2.45155 0.0595,1.07408 -1.22536,1.14511 -1.28483,0.071 -0.044,-0.79784 -0.10401,-1.59099 -0.1936,-2.37657 z"
       id="path1478"
       sodipodi:nodetypes="csc"
       inkscape:path-effect="#path-effect1480"
       inkscape:original-d="m 108.82455,157.37173 c 4.24666,0.84095 5.91539,2.75863 7.11646,4.0725 2.35218,2.57309 2.64838,7.8657 2.7658,11.15932" />
    <path
       style="display:inline;fill:#ffe920;fill-opacity:1;stroke:none;stroke-width:0.264583px;stroke-linecap:butt;stroke-linejoin:miter;stroke-opacity:1"
       d="m 107.85136,172.19175 c 0.0832,2.21322 5.54588,1.09088 6.74698,2.45968 0.60942,0.69451 -5.26549,3.22261 5.94021,2.281 3.47537,-0.29203 7.81235,-1.59188 7.82535,-4.40422 0.008,-1.72687 -5.18489,-3.74936 -9.91339,-3.6974 -4.39834,0.0483 -10.67883,1.2403 -10.59915,3.36094 z"
       id="path1482"
       sodipodi:nodetypes="ssssss" />
  </g>
  <g
     sodipodi:insensitive="true"
     transform="translate(-105.71832,-154.7648)"
     inkscape:label="shade"
     id="layer3"
     inkscape:groupmode="layer">
    <path
       inkscape:original-d="m 110.2273,171.93192 c -0.85044,1.06306 4.07778,1.27454 4.8192,1.46465 1.84264,0.47247 0.30894,1.4975 0.47248,2.07888 0.15023,0.53407 2.65205,0.35889 3.17177,0.2644"
       inkscape:path-effect="#path-effect1510"
       sodipodi:nodetypes="cssc"
       id="path1504"
       d="m 113.92828,172.99305 c -1.16046,-0.13338 -1.75311,-0.14425 -2.69151,-0.31393 -0.41562,-0.0803 -0.66185,-0.12243 -0.90189,-0.27823 0,0 0,0 0,0 -0.31456,-0.18302 -0.10758,-0.46897 -0.10758,-0.46897 0,0 -0.30112,0.24307 0.0318,0.56509 0,0 0,0 0,0 0.22381,0.20869 0.508,0.32948 0.90677,0.45814 0.80705,0.26909 1.6774,0.41826 2.70575,0.53468 0.53526,0.0611 0.95804,0.10922 1.1128,0.14891 0.2785,0.0714 0.45352,0.15006 0.56477,0.22785 0.3641,0.25459 0.0466,0.56016 -0.19453,1.11513 -0.0703,0.16184 -0.13197,0.36361 -0.0763,0.56143 0.0633,0.225 0.2841,0.34256 0.48792,0.40761 0.57601,0.17796 1.15665,0.11796 1.61939,0.0603 0,0 0,0 0,0 0.77469,-0.0904 1.30512,-0.27124 1.30512,-0.27124 0,0 -0.55156,-0.0126 -1.31265,-0.0676 0,0 0,0 0,0 -0.45625,-0.0361 -1.0169,-0.0508 -1.45983,-0.19781 -0.095,-0.0303 -0.15863,-0.0667 -0.15863,-0.0667 -0.0454,-0.16146 0.2425,-0.50229 0.38932,-0.9317 0.18692,-0.54671 0.005,-1.05365 -1.04037,-1.32165 -0.20723,-0.0531 -0.64549,-0.10034 -1.18031,-0.16135 z"
       style="display:inline;fill:#9da216;fill-opacity:1;fill-rule:nonzero;stroke:none;stroke-width:0.264583px;stroke-linecap:butt;stroke-linejoin:miter;stroke-opacity:1" />
    <path
       inkscape:original-d="m 121.85007,170.08928 c 3.02381,0.51977 5.64603,2.03162 4.32311,2.95294"
       inkscape:path-effect="#path-effect1508"
       sodipodi:nodetypes="cc"
       id="path1506"
       d="m 124.83525,170.70693 c -1.44329,-0.63887 -2.98518,-0.61765 -2.98518,-0.61765 0,0 1.44925,0.48305 2.78258,1.07477 0.59863,0.26531 1.06088,0.54931 1.34815,0.8268 0.20517,0.19035 0.33411,0.45381 0.33018,0.67776 -0.004,0.21771 -0.1378,0.37361 -0.1378,0.37361 0,0 0.21061,-0.036 0.35466,-0.30916 0.14124,-0.26784 0.15981,-0.74641 -0.19966,-1.10184 -0.33978,-0.32821 -0.86867,-0.64761 -1.49293,-0.92429 z"
       style="display:inline;fill:#9da216;fill-opacity:1;fill-rule:nonzero;stroke:none;stroke-width:0.264583px;stroke-linecap:butt;stroke-linejoin:miter;stroke-opacity:1" />
  </g>
  <g
     transform="translate(-105.71832,-154.7648)"
     style="display:inline"
     id="layer1"
     inkscape:groupmode="layer"
     inkscape:label="outline">
    <path
       inkscape:original-d="m 108.82455,157.37173 c 4.24666,0.84095 5.91539,2.75863 7.11646,4.0725 2.35218,2.57309 2.64838,7.8657 2.7658,11.15932"
       inkscape:path-effect="#path-effect1450"
       sodipodi:nodetypes="csc"
       id="path1420"
       d="m 109.48642,158.18451 c -1.02294,-0.27491 -0.83303,-1.55597 0.33528,-1.23674 0.81617,0.22301 1.60663,0.52308 2.36252,0.89207 0.95897,0.46812 0.39869,1.61574 -0.56027,1.14762 -0.68522,-0.33457 -1.40069,-0.60494 -2.13753,-0.80295 z m 4.27401,2.12686 c -0.89853,-0.68826 -0.12105,-1.70543 0.77748,-1.01717 0.66923,0.51054 1.29414,1.08104 1.86585,1.70336 0.004,0.004 0.008,0.009 0.0117,0.0129 0.74285,0.85273 -0.27515,1.56437 -0.94895,0.86747 -0.004,-0.004 -0.007,-0.008 -0.0108,-0.0117 -0.51919,-0.56813 -1.08725,-1.08915 -1.69531,-1.55492 z m 2.95522,3.60275 c -0.39293,-0.97217 0.71402,-1.62415 1.18885,-0.48955 0.33171,0.7926 0.56521,1.62046 0.74041,2.44118 0.0882,0.41327 -0.0607,0.70947 -0.2743,0.84911 -0.13123,0.086 -0.28938,0.11504 -0.44073,0.082 -0.24058,-0.0525 -0.46457,-0.26053 -0.55236,-0.65502 -0.17151,-0.77077 -0.37883,-1.52747 -0.66187,-2.22774 z m 1.08612,4.78964 c -0.12886,-1.13003 1.14801,-1.27604 1.27688,-0.14601 0.0938,0.81783 0.15639,1.63598 0.20155,2.45155 0.0595,1.07408 -1.22536,1.14511 -1.28483,0.071 -0.044,-0.79784 -0.10401,-1.59099 -0.1936,-2.37657 z"
       style="fill:none;stroke:#9da216;stroke-width:0.264583px;stroke-linecap:butt;stroke-linejoin:miter;stroke-opacity:1" />
    <path
       transform="scale(0.26458333)"
       d="m 440.13739,638.4475 c -15.42594,1.20948 -32.76789,5.49788 -32.5102,12.35596 v 0 c 0.31445,8.36493 20.9608,4.12302 25.50039,9.29643 2.30332,2.62492 -19.90106,12.17995 22.45119,8.62111 13.13526,-1.10374 29.52699,-6.01656 29.57613,-16.64588 0.0259,-5.59718 -14.40456,-12.01608 -29.787,-13.60709"
       style="fill:none;stroke:#000000;stroke-width:1.8897638;stroke-linecap:butt;stroke-linejoin:miter;stroke-opacity:1;stroke-miterlimit:4;stroke-dasharray:none"
       id="path1422" />
  </g>
</svg>
