<?xml version="1.0" encoding="UTF-8" standalone="no"?>
<svg
   xmlns:dc="http://purl.org/dc/elements/1.1/"
   xmlns:cc="http://creativecommons.org/ns#"
   xmlns:rdf="http://www.w3.org/1999/02/22-rdf-syntax-ns#"
   xmlns:svg="http://www.w3.org/2000/svg"
   xmlns="http://www.w3.org/2000/svg"
   xmlns:sodipodi="http://sodipodi.sourceforge.net/DTD/sodipodi-0.dtd"
   xmlns:inkscape="http://www.inkscape.org/namespaces/inkscape"
   width="34.275002mm"
   height="34.185127mm"
   viewBox="0 0 34.275001 34.185128"
   version="1.1"
   id="svg860"
   inkscape:version="1.0 (4035a4f, 2020-05-01)"
   sodipodi:docname="poo.svg">
  <defs
     id="defs854">
    <inkscape:path-effect
       effect="join_type"
       id="path-effect1591"
       is_visible="true"
       lpeversion="1"
       linecap_type="butt"
       line_width="3"
       linejoin_type="extrp_arc"
       miter_limit="100"
       attempt_force_join="true" />
    <inkscape:path-effect
       effect="skeletal"
       id="path-effect1584"
       is_visible="true"
       lpeversion="1"
       pattern="M 0,0 H 1"
       copytype="single_stretched"
       prop_scale="1"
       scale_y_rel="false"
       spacing="0"
       normal_offset="0"
       tang_offset="0"
       prop_units="false"
       vertical_pattern="false"
       hide_knot="false"
       fuse_tolerance="0" />
  </defs>
  <sodipodi:namedview
     id="base"
     pagecolor="#ffffff"
     bordercolor="#666666"
     borderopacity="1.0"
     inkscape:pageopacity="0.0"
     inkscape:pageshadow="2"
     inkscape:zoom="1.6172581"
     inkscape:cx="47.78724"
     inkscape:cy="90.04764"
     inkscape:document-units="mm"
     inkscape:current-layer="layer3"
     inkscape:document-rotation="0"
     showgrid="false"
     inkscape:snap-nodes="false"
     inkscape:object-paths="false"
     fit-margin-top="2"
     fit-margin-left="2"
     fit-margin-right="2"
     fit-margin-bottom="2"
     inkscape:window-width="1440"
     inkscape:window-height="788"
     inkscape:window-x="0"
     inkscape:window-y="23"
     inkscape:window-maximized="0" />
  <metadata
     id="metadata857">
    <rdf:RDF>
      <cc:Work
         rdf:about="">
        <dc:format>image/svg+xml</dc:format>
        <dc:type
           rdf:resource="http://purl.org/dc/dcmitype/StillImage" />
        <dc:title></dc:title>
      </cc:Work>
    </rdf:RDF>
  </metadata>
  <g
     inkscape:label="poo-fill"
     inkscape:groupmode="layer"
     id="layer1"
     style="display:inline"
     sodipodi:insensitive="true"
     transform="translate(-80.430559,-63.55728)">
    <path
       id="path1423"
       style="fill:#a05a2c;stroke:none;stroke-width:0.999999px;stroke-linecap:butt;stroke-linejoin:miter;stroke-opacity:1"
       d="m 369.13867,260.74609 c -16.67568,27.28749 -35.53353,20.5406 -35.625,34.10938 -0.0118,1.75894 0.21239,3.32981 0.6211,4.74805 -6.1456,3.47055 -9.98559,8.64426 -9.7168,16.47656 0.12747,3.7145 0.92519,6.76024 2.23828,9.27539 -8.07802,3.08955 -13.65025,7.61452 -13.60742,14.22265 0.1316,20.30534 31.21493,21.68175 57.60547,20.46485 20.43294,-0.94219 54.04082,-6.83561 53.81836,-21.98047 -0.12053,-8.20438 -7.4526,-13.10072 -17.85743,-15.88281 0.77437,-2.00225 1.1984,-4.27033 1.18165,-6.85742 -0.0559,-8.64482 -4.78282,-14.7259 -12.33008,-18.44336 0.20556,-2.30051 0.0141,-4.96946 -0.55664,-8.08594 -2.84599,-15.54053 -34.86731,-2.27537 -25.77149,-28.04688 z"
       transform="scale(0.26458333)" />
  </g>
  <g
     inkscape:groupmode="layer"
     id="layer2"
     inkscape:label="poo-shade"
     style="display:inline"
     sodipodi:insensitive="true"
     transform="translate(-80.430559,-63.55728)">
    <path
       id="path1498"
       style="display:inline;fill:#502d16;stroke:none;stroke-width:0.999999px;stroke-linecap:butt;stroke-linejoin:miter;stroke-opacity:1"
       d="m 370.65492,360.04312 c -26.39053,1.2169 -57.4753,-0.16028 -57.6069,-20.46561 -0.019,-2.93391 1.0671,-5.45799 2.98814,-7.62865 6.40396,12.50176 10.2304,15.77964 22.1331,20.24726 14.29639,5.36607 22.82731,4.60228 49.65351,6.12813 -6.06251,0.93222 -12.03141,1.48202 -17.16785,1.71887 z"
       transform="scale(0.26458333)"
       sodipodi:nodetypes="sscscs" />
    <path
       sodipodi:nodetypes="scsscs"
       id="path1458"
       d="m 91.894343,87.134233 c -2.080376,-0.628368 -4.352429,-2.153034 -5.805957,-5.295874 -0.186606,0.532618 -0.27568,1.125678 -0.252844,1.791132 0.203806,5.938647 6.768507,5.535948 12.033019,5.414857 1.316273,-0.03028 2.658399,-0.115383 3.936559,-0.319541 -5.706639,-0.326198 -6.960417,-0.699431 -9.910777,-1.590574 z"
       style="display:inline;fill:#502d16;stroke:none;stroke-width:0.264583px;stroke-linecap:butt;stroke-linejoin:miter;stroke-opacity:1" />
    <path
       id="path1488"
       style="display:inline;fill:#502d16;stroke:none;stroke-width:0.999999px;stroke-linecap:butt;stroke-linejoin:miter;stroke-opacity:1"
       d="m 370.65492,310.77406 c -16.79722,1.39018 -37.25491,0.93656 -37.1413,-15.9177 0.0305,-4.52567 2.14875,-6.79131 5.62566,-8.84187 1.87787,9.11962 7.83166,14.10556 12.7519,17.69748 5.38942,3.93443 15.16402,4.77759 29.11988,5.70671 -3.01289,0.60392 -6.43161,1.03058 -10.35614,1.35538 z"
       transform="scale(0.26458333)"
       sodipodi:nodetypes="sscscs" />
  </g>
  <g
     inkscape:groupmode="layer"
     id="layer3"
     inkscape:label="poo-outline"
     style="display:inline"
     transform="translate(-80.430559,-63.55728)">
    <path
       id="path1529"
       style="display:inline;opacity:0;fill:none;stroke:#000000;stroke-width:0.999999px;stroke-linecap:butt;stroke-linejoin:miter;stroke-opacity:1"
       d="m 369.13867,260.74609 c -16.67568,27.28749 -35.53353,20.5406 -35.625,34.10938 -0.0118,1.75894 0.21239,3.32981 0.6211,4.74805 -6.1456,3.47055 -9.98559,8.64426 -9.7168,16.47656 0.12747,3.7145 0.92519,6.76024 2.23828,9.27539 -8.07802,3.08955 -13.65025,7.61452 -13.60742,14.22265 0.1316,20.30534 31.21493,21.68175 57.60547,20.46485 20.43294,-0.94219 54.04082,-6.83561 53.81836,-21.98047 -0.12053,-8.20438 -7.4526,-13.10072 -17.85743,-15.88281 0.77437,-2.00225 1.1984,-4.27033 1.18165,-6.85742 -0.0559,-8.64482 -4.78282,-14.7259 -12.33008,-18.44336 0.20556,-2.30051 0.0141,-4.96946 -0.55664,-8.08594 -2.84599,-15.54053 -34.86731,-2.27537 -25.77149,-28.04688 z"
       transform="scale(0.26458333)" />
    <path
       d="m 369.13867,260.74609 c -16.67568,27.28749 -35.53353,20.5406 -35.625,34.10938 -0.0118,1.75894 0.21239,3.32981 0.6211,4.74805 -6.1456,3.47055 -9.98559,8.64426 -9.7168,16.47656 0.12747,3.7145 0.92519,6.76024 2.23828,9.27539 -8.07802,3.08955 -13.65025,7.61452 -13.60742,14.22265 0.1316,20.30534 31.21493,21.68175 57.60547,20.46485 20.43294,-0.94219 54.04082,-6.83561 53.81836,-21.98047 -0.12053,-8.20438 -7.4526,-13.10072 -17.85743,-15.88281 0.77437,-2.00225 1.1984,-4.27033 1.18165,-6.85742 -0.0559,-8.64482 -4.78282,-14.7259 -12.33008,-18.44336 0.20556,-2.30051 0.0141,-4.96946 -0.55664,-8.08594 -2.84599,-15.54053 -34.86731,-2.27537 -25.77149,-28.04688 z"
       style="display:inline;opacity:0;fill:none;stroke:#000000;stroke-width:0.999999px;stroke-linecap:butt;stroke-linejoin:miter;stroke-opacity:1"
       id="path1569"
       transform="scale(0.26458333)" />
    <path
       d="m 332.0137,294.84541 c -0.0127,1.89655 0.22854,3.60782 0.67973,5.17348 l 0.70375,-1.72149 c -6.54915,3.69844 -10.76908,9.36178 -10.47833,17.83413 0.13407,3.90661 0.97646,7.17667 2.4077,9.91814 l 0.79386,-2.09523 c -8.34967,3.19345 -14.62056,8.0717 -14.57155,15.6334 0.14183,21.88342 32.67455,23.17548 59.17453,21.95354 20.57863,-0.94891 55.49403,-6.82699 55.24911,-23.50091 -0.13515,-9.19959 -8.27878,-14.45126 -18.9698,-17.30987 l 1.01155,1.99016 c 0.8476,-2.19161 1.30048,-4.64624 1.2826,-7.40819 -0.0603,-9.32258 -5.17128,-15.8408 -13.16725,-19.77928 l 0.83125,1.47912 c 0.22103,-2.47364 0.0111,-5.28805 -0.57523,-8.48965 -0.66579,-3.63555 -2.70004,-5.90254 -5.37389,-7.44043 -4.94813,-2.84599 -12.15363,-3.11826 -16.958,-5.18412 -4.21014,-1.81036 -6.90343,-5.01145 -3.50057,-14.65289 l 4.75403,-13.46977 -7.44844,12.18837 c -16.39661,26.83082 -35.74538,20.0968 -35.84505,34.88149 z m 40.85496,-16.19119 c 8.10197,3.48383 19.06276,2.20032 20.56604,10.40896 0.55515,3.03136 0.72814,5.55485 0.53805,7.68223 a 17.24081,17.24081 0 0 1 -0.12332,1.02971 29.872115,29.872115 0 0 1 0.95457,0.44941 c 7.09855,3.49644 11.44139,9.14038 11.49291,17.10745 0.0156,2.41222 -0.37956,4.49375 -1.0807,6.30664 a 14.825747,14.825747 0 0 1 -0.708,1.55711 60.890011,60.890011 0 0 1 1.71955,0.43305 c 10.11864,2.70557 16.63915,7.24658 16.74506,14.45575 0.19949,13.58105 -32.10367,19.52471 -52.38761,20.46003 -26.2811,1.21186 -55.91504,-0.2489 -56.03641,-18.97616 -0.0367,-5.65456 4.83692,-9.82625 12.64329,-12.8119 a 48.611672,48.611672 0 0 1 1.67875,-0.60697 15.669004,15.669004 0 0 1 -0.88489,-1.48826 c -1.19494,-2.28883 -1.94799,-5.11025 -2.06886,-8.63264 -0.24683,-7.19225 3.21322,-11.87633 8.95527,-15.11899 a 27.438883,27.438883 0 0 1 1.08839,-0.58274 13.312352,13.312352 0 0 1 -0.38464,-1.13875 c -0.36623,-1.27082 -0.57335,-2.70129 -0.56247,-4.32257 0.0831,-12.32605 18.44403,-5.58307 35.40495,-33.33732 l -2.69441,-1.2814 c -3.87379,10.97577 -0.68626,15.90015 5.14448,18.40736 z"
       style="display:inline;fill:#000000;fill-rule:nonzero;stroke:none;stroke-width:1.00157;stroke-linecap:butt;stroke-linejoin:miter;stroke-miterlimit:4;stroke-dasharray:none;stroke-opacity:1"
       id="path1572"
       transform="scale(0.26458333)"
       inkscape:path-effect="#path-effect1591"
       inkscape:original-d="m 369.13867,260.74609 c -16.67568,27.28749 -35.53353,20.5406 -35.625,34.10938 -0.0118,1.75894 0.21239,3.32981 0.6211,4.74805 -6.1456,3.47055 -9.98559,8.64426 -9.7168,16.47656 0.12747,3.7145 0.92519,6.76024 2.23828,9.27539 -8.07802,3.08955 -13.65025,7.61452 -13.60742,14.22265 0.1316,20.30534 31.21493,21.68175 57.60547,20.46485 20.43294,-0.94219 54.04082,-6.83561 53.81836,-21.98047 -0.12053,-8.20438 -7.4526,-13.10072 -17.85743,-15.88281 0.77437,-2.00225 1.1984,-4.27033 1.18165,-6.85742 -0.0559,-8.64482 -4.78282,-14.7259 -12.33008,-18.44336 0.20556,-2.30051 0.0141,-4.96946 -0.55664,-8.08594 -2.84599,-15.54053 -34.86731,-2.27537 -25.77149,-28.04688 z" />
  </g>
</svg>
